<svg width="178" height="82" viewBox="0 0 178 82" fill="none" xmlns="http://www.w3.org/2000/svg">
<path d="M20 16H16.1304C12.2644 16 9.13044 19.134 9.13044 23L9.13044 34.8713C9.13044 36.0312 8.43935 37.0795 7.37335 37.5367L6.89372 37.7424C4.56173 38.7425 4.75824 42.1115 7.19069 42.8337V42.8337C8.34132 43.1753 9.13044 44.2328 9.13044 45.4331V59C9.13044 62.866 12.2644 66 16.1304 66H20" stroke="#60DFB4" stroke-width="8"/>
<mask id="path-2-outside-1_7_1958" maskUnits="userSpaceOnUse" x="21" y="18" width="134" height="62" fill="black">
<rect fill="white" x="21" y="18" width="134" height="62"/>
<path d="M33.27 27.4H22.7V19H53.36V27.4H42.79V68H33.27V27.4ZM54.3378 68V32.23H60.9878L62.7378 36.01C64.6045 33.49 66.9611 32.23 69.8078 32.23H72.5378V41.61H63.6478V68H54.3378ZM76.343 48.33V32.23H85.653V48.4C85.653 52.46 86.4696 55.8433 88.103 58.55H92.233C93.773 55.89 94.543 52.5067 94.543 48.4V32.23H103.853V47.84C103.853 51.34 103.386 54.42 102.453 57.08C101.566 59.74 100.096 62.75 98.043 66.11L93.353 73.74C92.513 75.1867 91.6263 76.26 90.693 76.96C89.7596 77.66 88.5463 78.1733 87.053 78.5H75.993V71.15H83.553C84.533 70.87 85.3496 70.38 86.003 69.68C86.6563 68.98 87.333 67.9767 88.033 66.67L88.453 65.9H83.623C81.383 64.08 79.6096 61.63 78.303 58.55C76.9963 55.4233 76.343 52.0167 76.343 48.33ZM108.379 51.83V43.85H122.799V51.83H108.379ZM141.479 59.88H153.799V68H136.019C132.939 65.1067 130.606 61.4433 129.019 57.01C127.432 52.5767 126.639 48.0267 126.639 43.36C126.639 38.6467 127.526 34.12 129.299 29.78C131.072 25.44 133.709 21.8467 137.209 19H153.799V27.4H141.479C140.219 28.8467 139.122 31.18 138.189 34.4C137.302 37.62 136.859 40.7 136.859 43.64C136.859 46.58 137.302 49.66 138.189 52.88C139.122 56.1 140.219 58.4333 141.479 59.88Z"/>
</mask>
<path d="M33.27 27.4H22.7V19H53.36V27.4H42.79V68H33.27V27.4ZM54.3378 68V32.23H60.9878L62.7378 36.01C64.6045 33.49 66.9611 32.23 69.8078 32.23H72.5378V41.61H63.6478V68H54.3378ZM76.343 48.33V32.23H85.653V48.4C85.653 52.46 86.4696 55.8433 88.103 58.55H92.233C93.773 55.89 94.543 52.5067 94.543 48.4V32.23H103.853V47.84C103.853 51.34 103.386 54.42 102.453 57.08C101.566 59.74 100.096 62.75 98.043 66.11L93.353 73.74C92.513 75.1867 91.6263 76.26 90.693 76.96C89.7596 77.66 88.5463 78.1733 87.053 78.5H75.993V71.15H83.553C84.533 70.87 85.3496 70.38 86.003 69.68C86.6563 68.98 87.333 67.9767 88.033 66.67L88.453 65.9H83.623C81.383 64.08 79.6096 61.63 78.303 58.55C76.9963 55.4233 76.343 52.0167 76.343 48.33ZM108.379 51.83V43.85H122.799V51.83H108.379ZM141.479 59.88H153.799V68H136.019C132.939 65.1067 130.606 61.4433 129.019 57.01C127.432 52.5767 126.639 48.0267 126.639 43.36C126.639 38.6467 127.526 34.12 129.299 29.78C131.072 25.44 133.709 21.8467 137.209 19H153.799V27.4H141.479C140.219 28.8467 139.122 31.18 138.189 34.4C137.302 37.62 136.859 40.7 136.859 43.64C136.859 46.58 137.302 49.66 138.189 52.88C139.122 56.1 140.219 58.4333 141.479 59.88Z" fill="#60DFB4"/>
<path d="M33.27 27.4H34.27V26.4H33.27V27.4ZM22.7 27.4H21.7V28.4H22.7V27.4ZM22.7 19V18H21.7V19H22.7ZM53.36 19H54.36V18H53.36V19ZM53.36 27.4V28.4H54.36V27.4H53.36ZM42.79 27.4V26.4H41.79V27.4H42.79ZM42.79 68V69H43.79V68H42.79ZM33.27 68H32.27V69H33.27V68ZM33.27 26.4H22.7V28.4H33.27V26.4ZM23.7 27.4V19H21.7V27.4H23.7ZM22.7 20H53.36V18H22.7V20ZM52.36 19V27.4H54.36V19H52.36ZM53.36 26.4H42.79V28.4H53.36V26.4ZM41.79 27.4V68H43.79V27.4H41.79ZM42.79 67H33.27V69H42.79V67ZM34.27 68V27.4H32.27V68H34.27ZM54.3378 68H53.3378V69H54.3378V68ZM54.3378 32.23V31.23H53.3378V32.23H54.3378ZM60.9878 32.23L61.8953 31.8099L61.6268 31.23H60.9878V32.23ZM62.7378 36.01L61.8303 36.4301L62.5383 37.9593L63.5414 36.6052L62.7378 36.01ZM72.5378 32.23H73.5378V31.23H72.5378V32.23ZM72.5378 41.61V42.61H73.5378V41.61H72.5378ZM63.6478 41.61V40.61H62.6478V41.61H63.6478ZM63.6478 68V69H64.6478V68H63.6478ZM55.3378 68V32.23H53.3378V68H55.3378ZM54.3378 33.23H60.9878V31.23H54.3378V33.23ZM60.0803 32.6501L61.8303 36.4301L63.6453 35.5899L61.8953 31.8099L60.0803 32.6501ZM63.5414 36.6052C65.2416 34.3099 67.3135 33.23 69.8078 33.23V31.23C66.6088 31.23 63.9674 32.6701 61.9343 35.4148L63.5414 36.6052ZM69.8078 33.23H72.5378V31.23H69.8078V33.23ZM71.5378 32.23V41.61H73.5378V32.23H71.5378ZM72.5378 40.61H63.6478V42.61H72.5378V40.61ZM62.6478 41.61V68H64.6478V41.61H62.6478ZM63.6478 67H54.3378V69H63.6478V67ZM76.343 32.23V31.23H75.343V32.23H76.343ZM85.653 32.23H86.653V31.23H85.653V32.23ZM88.103 58.55L87.2468 59.0667L87.5385 59.55H88.103V58.55ZM92.233 58.55V59.55H92.8095L93.0984 59.051L92.233 58.55ZM94.543 32.23V31.23H93.543V32.23H94.543ZM103.853 32.23H104.853V31.23H103.853V32.23ZM102.453 57.08L101.509 56.7489L101.507 56.7563L101.504 56.7638L102.453 57.08ZM98.043 66.11L98.8949 66.6337L98.8963 66.6315L98.043 66.11ZM93.353 73.74L92.501 73.2163L92.4945 73.227L92.4882 73.2379L93.353 73.74ZM90.693 76.96L90.093 76.16L90.693 76.96ZM87.053 78.5V79.5H87.1611L87.2667 79.4769L87.053 78.5ZM75.993 78.5H74.993V79.5H75.993V78.5ZM75.993 71.15V70.15H74.993V71.15H75.993ZM83.553 71.15V72.15H83.693L83.8277 72.1115L83.553 71.15ZM86.003 69.68L85.2719 68.9977L86.003 69.68ZM88.033 66.67L87.1551 66.1911L87.1515 66.1978L88.033 66.67ZM88.453 65.9L89.3309 66.3789L90.1375 64.9H88.453V65.9ZM83.623 65.9L82.9924 66.6761L83.2679 66.9H83.623V65.9ZM78.303 58.55L77.3803 58.9356L77.3824 58.9405L78.303 58.55ZM77.343 48.33V32.23H75.343V48.33H77.343ZM76.343 33.23H85.653V31.23H76.343V33.23ZM84.653 32.23V48.4H86.653V32.23H84.653ZM84.653 48.4C84.653 52.5912 85.4961 56.1656 87.2468 59.0667L88.9592 58.0333C87.4431 55.5211 86.653 52.3288 86.653 48.4H84.653ZM88.103 59.55H92.233V57.55H88.103V59.55ZM93.0984 59.051C94.7513 56.196 95.543 52.6255 95.543 48.4H93.543C93.543 52.3879 92.7946 55.584 91.3675 58.049L93.0984 59.051ZM95.543 48.4V32.23H93.543V48.4H95.543ZM94.543 33.23H103.853V31.23H94.543V33.23ZM102.853 32.23V47.84H104.853V32.23H102.853ZM102.853 47.84C102.853 51.2534 102.398 54.2175 101.509 56.7489L103.397 57.4111C104.375 54.6225 104.853 51.4266 104.853 47.84H102.853ZM101.504 56.7638C100.649 59.3296 99.2181 62.2694 97.1897 65.5886L98.8963 66.6315C100.975 63.2306 102.484 60.1504 103.402 57.3962L101.504 56.7638ZM97.191 65.5863L92.501 73.2163L94.2049 74.2637L98.8949 66.6337L97.191 65.5863ZM92.4882 73.2379C91.6886 74.6149 90.883 75.5675 90.093 76.16L91.293 77.76C92.3696 76.9525 93.3373 75.7584 94.2178 74.2421L92.4882 73.2379ZM90.093 76.16C89.304 76.7518 88.2342 77.218 86.8393 77.5231L87.2667 79.4769C88.8584 79.1287 90.2153 78.5682 91.293 77.76L90.093 76.16ZM87.053 77.5H75.993V79.5H87.053V77.5ZM76.993 78.5V71.15H74.993V78.5H76.993ZM75.993 72.15H83.553V70.15H75.993V72.15ZM83.8277 72.1115C84.9706 71.785 85.9487 71.2037 86.734 70.3623L85.2719 68.9977C84.7506 69.5563 84.0953 69.955 83.2782 70.1885L83.8277 72.1115ZM86.734 70.3623C87.4693 69.5745 88.1933 68.4884 88.9145 67.1422L87.1515 66.1978C86.4726 67.465 85.8433 68.3855 85.2719 68.9977L86.734 70.3623ZM88.9109 67.1489L89.3309 66.3789L87.5751 65.4211L87.1551 66.1911L88.9109 67.1489ZM88.453 64.9H83.623V66.9H88.453V64.9ZM84.2536 65.1239C82.1591 63.4221 80.4767 61.1132 79.2236 58.1595L77.3824 58.9405C78.7426 62.1468 80.6069 64.7379 82.9924 66.6761L84.2536 65.1239ZM79.2256 58.1644C77.9744 55.1703 77.343 51.896 77.343 48.33H75.343C75.343 52.1373 76.0183 55.6764 77.3803 58.9356L79.2256 58.1644ZM108.379 51.83H107.379V52.83H108.379V51.83ZM108.379 43.85V42.85H107.379V43.85H108.379ZM122.799 43.85H123.799V42.85H122.799V43.85ZM122.799 51.83V52.83H123.799V51.83H122.799ZM109.379 51.83V43.85H107.379V51.83H109.379ZM108.379 44.85H122.799V42.85H108.379V44.85ZM121.799 43.85V51.83H123.799V43.85H121.799ZM122.799 50.83H108.379V52.83H122.799V50.83ZM141.479 59.88L140.725 60.5368L141.024 60.88H141.479V59.88ZM153.799 59.88H154.799V58.88H153.799V59.88ZM153.799 68V69H154.799V68H153.799ZM136.019 68L135.334 68.7288L135.623 69H136.019V68ZM129.019 57.01L129.961 56.673L129.019 57.01ZM129.299 29.78L130.225 30.1582L129.299 29.78ZM137.209 19V18H136.854L136.578 18.2242L137.209 19ZM153.799 19H154.799V18H153.799V19ZM153.799 27.4V28.4H154.799V27.4H153.799ZM141.479 27.4V26.4H141.024L140.725 26.7432L141.479 27.4ZM138.189 34.4L137.229 34.1216L137.225 34.1345L138.189 34.4ZM138.189 52.88L137.225 53.1455L137.229 53.1584L138.189 52.88ZM141.479 60.88H153.799V58.88H141.479V60.88ZM152.799 59.88V68H154.799V59.88H152.799ZM153.799 67H136.019V69H153.799V67ZM136.704 67.2712C133.752 64.4982 131.5 60.9745 129.961 56.673L128.078 57.347C129.711 61.9122 132.126 65.7152 135.334 68.7288L136.704 67.2712ZM129.961 56.673C128.412 52.3468 127.639 47.9108 127.639 43.36H125.639C125.639 48.1426 126.453 52.8065 128.078 57.347L129.961 56.673ZM127.639 43.36C127.639 38.7757 128.501 34.3775 130.225 30.1582L128.373 29.4018C126.551 33.8625 125.639 38.5177 125.639 43.36H127.639ZM130.225 30.1582C131.937 25.967 134.475 22.5125 137.84 19.7758L136.578 18.2242C132.943 21.1808 130.207 24.9129 128.373 29.4018L130.225 30.1582ZM137.209 20H153.799V18H137.209V20ZM152.799 19V27.4H154.799V19H152.799ZM153.799 26.4H141.479V28.4H153.799V26.4ZM140.725 26.7432C139.323 28.3528 138.177 30.8513 137.229 34.1216L139.15 34.6784C140.068 31.5087 141.115 29.3405 142.233 28.0568L140.725 26.7432ZM137.225 34.1345C136.318 37.4295 135.859 40.5991 135.859 43.64H137.859C137.859 40.8009 138.287 37.8105 139.153 34.6655L137.225 34.1345ZM135.859 43.64C135.859 46.6809 136.318 49.8505 137.225 53.1455L139.153 52.6145C138.287 49.4695 137.859 46.4791 137.859 43.64H135.859ZM137.229 53.1584C138.177 56.4287 139.323 58.9272 140.725 60.5368L142.233 59.2232C141.115 57.9395 140.068 55.7713 139.15 52.6016L137.229 53.1584Z" fill="#60DFB4" mask="url(#path-2-outside-1_7_1958)"/>
<path d="M158 16H161.87C165.736 16 168.87 19.134 168.87 23V34.8713C168.87 36.0312 169.561 37.0795 170.627 37.5367L171.106 37.7424C173.438 38.7425 173.242 42.1115 170.809 42.8337V42.8337C169.659 43.1753 168.87 44.2328 168.87 45.4331V59C168.87 62.866 165.736 66 161.87 66H158" stroke="#60DFB4" stroke-width="8"/>
</svg>
